<?xml version="1.0" encoding="utf-8"?>
<!-- Generator: Adobe Illustrator 26.0.0, SVG Export Plug-In . SVG Version: 6.00 Build 0)  -->
<svg version="1.1" id="Capa_1" xmlns="http://www.w3.org/2000/svg" xmlns:xlink="http://www.w3.org/1999/xlink" x="0px" y="0px"
	 viewBox="0 0 113 34" style="enable-background:new 0 0 113 34;" xml:space="preserve">
<style type="text/css">
	.st0{enable-background:new    ;}
	.st1{fill:#64EEBC;}
</style>
<g class="st0">
	<path class="st1" d="M0,4.2h4v22h6.6v3.7H0V4.2z"/>
	<path class="st1" d="M15.7,4.2h4v25.7h-4V4.2z"/>
	<path class="st1" d="M24.7,4.2h12.5v3.7h-4.2v22h-4v-22h-4.2V4.2z"/>
	<path class="st1" d="M46.1,15h5.5v3.7h-5.5v7.5h7v3.7h-11V4.2h11v3.7h-7V15z"/>
</g>
<g class="st0">
	<path class="st1" d="M68.9,16.7v1.5h-6.6v11.6h-1.7V4.2h9.7v1.5h-8.1v11H68.9z"/>
	<path class="st1" d="M76.1,29.8V4.2h1.7v24.1h8.1v1.5H76.1z"/>
	<path class="st1" d="M93.3,4.2v25.7h-1.7V4.2H93.3z"/>
	<path class="st1" d="M106,17.9l-5.2,11.9h-1.6l5.8-13.3L99.5,4.2h1.8l4.8,11l4.9-11h1.6l-5.4,12.4l5.8,13.3h-1.8L106,17.9z"/>
</g>
</svg>
